<?xml version="1.0" encoding="utf-8"?>
<!-- Generator: Adobe Illustrator 16.0.0, SVG Export Plug-In . SVG Version: 6.00 Build 0)  -->
<!DOCTYPE svg PUBLIC "-//W3C//DTD SVG 1.0//EN" "http://www.w3.org/TR/2001/REC-SVG-20010904/DTD/svg10.dtd">
<svg version="1.0" id="Layer_1" xmlns="http://www.w3.org/2000/svg" xmlns:xlink="http://www.w3.org/1999/xlink" x="0px" y="0px"
	 width="100px" height="100px" viewBox="0 0 100 100" enable-background="new 0 0 100 100" xml:space="preserve">
<path d="M70,23.333v-6.667H56.667V10h-20v6.667H23.334V30h-6.667v33.333l20,13.334V90h6.667V73.099l-20-13.333V36.667H50v6.667
	H36.667V50h39.795L70,75.847V90h6.667V76.667L83.333,50V23.333H70z M30,30v-6.667h6.667V30H30z M43.334,30V16.667H50V30H43.334z
	 M56.667,43.333v-20h6.666v20H56.667z M76.667,43.333H70V30h6.667V43.333z"/>
</svg>
